<svg xmlns="http://www.w3.org/2000/svg">
<symbol id="svg-arrow" viewBox="0 0 20 20">

<path id="arrow.svg" class="st0" d="M10.9,0L8.5,2.6l5.2,5.6H0v3.6h13.6l-5.2,5.6l2.4,2.6L20,10L10.9,0z"/>
</symbol>
<symbol id="svg-arrow_blank" viewBox="0 0 16 16">

<path id="_blank.svg" class="st0" d="M2.5,0l0,3.5h7.6L0,13.5L2.5,16L12.5,5.9v7.6l3.5,0L16,0L2.5,0z"/>
</symbol>
<symbol id="svg-button_arrow" viewBox="0 0 12.5 20">
<path d="M2.5,20L0,17.5L7.5,10L0,2.5L2.5,0l10,10L2.5,20z"/>
</symbol>
<symbol id="svg-check_icon" viewBox="0 0 12 9.5">

<polygon class="st0" points="10.1,0 4.5,5.8 1.9,3.3 0,5.1 4.5,9.5 12,1.9 10.1,0 "/>
</symbol>
<symbol id="svg-digital_arrow" viewBox="0 0 160 160">
<g>
	<path d="M28,112h-9.5c17.7,34,59.5,47.2,93.5,29.6c23-11.9,37.4-35.7,37.4-61.6H160c0,44.2-35.9,80-80.1,80
		c-28.6,0-55-15.3-69.3-40.1v9.5H0v-28h28V112z"/>
	<path d="M132,48h9.5C123.9,14,82,0.7,48,18.4C25.1,30.3,10.7,54.1,10.7,80H0C0,35.8,35.9,0,80.1,0c28.6,0,55,15.3,69.3,40.1v-9.5
		H160v28h-28V48z"/>
</g>
</symbol>
<symbol id="svg-loading" viewBox="0 0 24.2 7.1">

<path class="st0" d="M22.4,0.4C19.7,3.3,16,5,12.1,5C8.3,5,4.5,3.3,1.9,0.4C1.5-0.1,0.8-0.1,0.4,0.3c-0.4,0.4-0.5,1.1-0.1,1.5
	c3,3.4,7.3,5.3,11.9,5.3c4.5,0,8.8-1.9,11.8-5.3c0.4-0.4,0.4-1.1-0.1-1.5C23.4,0,22.7,0,22.4,0.4L22.4,0.4z"/>
</symbol>
<symbol id="svg-loading_l" viewBox="0 0 13.9 21.3">

<path class="st0" d="M2.1,15.8c0-6.6,4.6-12.3,11-13.7C13.7,2,14,1.4,13.9,0.9c-0.1-0.6-0.7-1-1.3-0.8C5.3,1.6,0,8.3,0,15.8
	c0,1.6,0.2,3.2,0.7,4.7c0.1,0.5,0.6,0.8,1,0.8c0.1,0,0.2,0,0.3-0.1c0.6-0.2,0.9-0.8,0.7-1.3C2.3,18.6,2.1,17.2,2.1,15.8L2.1,15.8z"/>
</symbol>
<symbol id="svg-loading_r" viewBox="0 0 13.8 21.5">
<path d="M1.3,0C0.7-0.1,0.1,0.3,0,0.8C-0.1,1.4,0.3,2,0.8,2.1c6.3,1.4,10.8,7.2,10.8,13.7c0,1.5-0.2,2.9-0.6,4.3
	c-0.2,0.6,0.1,1.2,0.7,1.4c0.1,0,0.2,0,0.3,0c0.4,0,0.9-0.3,1-0.7c0.5-1.6,0.8-3.2,0.8-4.9C13.8,8.2,8.7,1.7,1.3,0L1.3,0z"/>
</symbol>
<symbol id="svg-logo" viewBox="0 0 306.1 38.6">
<g>
	<g>
    <path d="M22.7,6.4l-4.5,2.7c-0.8-1.5-1.7-2.4-2.4-2.9C15,5.7,14,5.4,12.7,5.4c-1.5,0-2.8,0.4-3.9,1.3c-1,0.9-1.5,1.9-1.5,3.3
      c0,1.8,1.3,3.3,4,4.4l3.7,1.5c3,1.2,5.2,2.7,6.6,4.4c1.4,1.7,2.1,3.9,2.1,6.4c0,3.4-1.1,6.2-3.4,8.4c-2.3,2.2-5.1,3.3-8.5,3.3
      c-3.2,0-5.9-0.9-7.9-2.8c-2.1-1.9-3.3-4.6-3.9-8l5.6-1.2c0.3,2.2,0.7,3.7,1.3,4.5c1.1,1.6,2.8,2.4,5,2.4c1.7,0,3.2-0.6,4.3-1.7
      c1.1-1.2,1.7-2.6,1.7-4.4c0-0.7-0.1-1.4-0.3-2c-0.2-0.6-0.5-1.1-0.9-1.7c-0.4-0.5-1-1-1.6-1.4c-0.7-0.4-1.5-0.9-2.4-1.3l-3.6-1.5
      c-5.1-2.1-7.6-5.3-7.6-9.4c0-2.8,1.1-5.1,3.2-7C7,1.1,9.6,0.2,12.8,0.2C17,0.2,20.3,2.3,22.7,6.4z"/>
    <path d="M45.5,6.1v31.7h-5.6V6.1h-8.5V0.9H54v5.2H45.5z"/>
    <path d="M71.3,21.9l-12.1-21h6.4l8.4,14.8l8.5-14.8H89l-12.1,21v16h-5.6V21.9z"/>
    <path d="M103.7,0.9v31.7h10.9v5.2H98.1V0.9H103.7z"/>
    <path d="M145.1,6.1h-14.8V15h14.4v5.2h-14.4v12.3h14.8v5.2h-20.4V0.9h20.4V6.1z"/>
    <path d="M183.5,22.8v15h-5.6V0.9h6.3c3.1,0,5.4,0.2,7,0.6c1.6,0.4,3,1.2,4.2,2.4c2.1,2.1,3.2,4.7,3.2,7.8c0,3.4-1.1,6.1-3.4,8
      c-2.3,2-5.3,3-9.2,3H183.5z M183.5,17.7h2.1c5.1,0,7.7-2,7.7-5.9c0-3.8-2.6-5.7-7.9-5.7h-1.8V17.7z"/>
    <path d="M266.6,22.1L278,37.8h-6.8l-10.6-15.1h-1v15.1h-5.6V0.9h6.5c4.9,0,8.4,0.9,10.6,2.8c2.4,2,3.6,4.7,3.6,8.1
      c0,2.6-0.7,4.9-2.2,6.7C271,20.4,269,21.6,266.6,22.1z M259.6,17.9h1.8c5.3,0,7.9-2,7.9-6.1c0-3.8-2.6-5.7-7.7-5.7h-2V17.9z"/>
    <path d="M297.7,6.1v31.7h-5.6V6.1h-8.5V0.9h22.5v5.2H297.7z"/>
	</g>
	<path d="M238.5,21.9h-5.2v-5.2h5.2V21.9z M225,33c-7.8,0-14.1-6.5-13.7-14.4c0.3-6.7,5.7-12.4,12.4-13C231,5,237.2,10,238.5,16.7
		h5.6c-1.4-10-10.3-17.5-20.9-16.6c-9,0.8-16.4,8-17.4,17c-1.3,11.7,7.8,21.5,19.2,21.5c9.8,0,17.8-7.3,19.1-16.7h-5.6
		C237.3,28.3,231.7,33,225,33z"/>
</g>
</symbol>
<symbol id="svg-roov_logo" viewBox="0 0 188.2 134.6">
<path d="M111.5,52.9L72.9,38.3c-1.1-0.4-1.8-1.7-1.6-2.8l2.1-13.4c0.2-1.1,1.1-2.5,2.1-3.1l14.6-8.5c0.9-0.5,2.3-0.6,3.3-0.2
	l13.7,5.6c0.8,0.3,1.5,1.4,1.5,2.3v22.9c0,1.2,0.3,3,0.7,4.1l2.9,7c0.2,0.5,0,0.8-0.3,0.8C111.8,53,111.6,53,111.5,52.9 M89.2,0.5
	L67.1,13.3c-1,0.6-2,2-2.1,3.1l-4,25.2c-0.2,1.1,0.6,2.4,1.6,2.8l63.2,23.5c1.1,0.4,1.6-0.2,1.2-1.2l-8.5-23.1
	c-0.4-1.1-0.7-2.9-0.7-4.1v-27c0-1.2-0.9-2.5-1.9-2.9L92.9,0.3C92.5,0.1,92,0,91.4,0C90.6,0,89.8,0.2,89.2,0.5"/>
<path d="M84.2,116.5c0,10.3-8.1,18.1-18.2,18.1c-10.1,0-18.2-7.8-18.2-18.1c0-10.2,8.1-18.1,18.2-18.1
	C76.1,98.4,84.2,106.3,84.2,116.5 M55.4,116.5c0,6,4.4,11.8,10.6,11.8c6.3,0,10.6-5.8,10.6-11.8c0-6.1-4.3-11.8-10.6-11.8
	C59.8,104.7,55.4,110.5,55.4,116.5"/>
<path d="M171.3,134.2c-0.6,0-1.3-0.5-1.5-1.1l-12.8-33.3c-0.2-0.6,0.1-1.1,0.7-1.1h5.8c0.6,0,1.3,0.5,1.5,1.1l7.2,19.5
	c0.2,0.6,0.6,0.6,0.8,0l7.1-19.5c0.2-0.6,0.9-1.1,1.5-1.1h5.8c0.6,0,0.9,0.5,0.7,1.1l-12.8,33.3c-0.2,0.6-0.9,1.1-1.5,1.1H171.3z"/>
<path d="M20.9,123.4l6.6,9.8c0.3,0.5,0,1.1-0.6,1.1h-6.4c-0.5,0-0.9-0.2-1.2-0.6l-5.8-8.6c-0.2-0.2-0.4-0.4-0.7-0.4H8.3
	c-0.4,0-0.7,0.3-0.7,0.7v7.8c0,0.6-0.5,1.1-1.1,1.1H1.1c-0.6,0-1.1-0.5-1.1-1.1V100c0-0.6,0.5-1.1,1.1-1.1h13.1
	c7.3,0,13.1,5.6,13.1,12.9c0,4.8-2.5,8.8-6.2,11C20.8,122.9,20.7,123.2,20.9,123.4 M7.6,117.6c0,0.4,0.3,0.7,0.7,0.7h5.8
	c3.1,0,5.6-2.8,5.6-6.6c0-3.8-2.5-6.6-5.6-6.6H8.3c-0.4,0-0.7,0.3-0.7,0.7V117.6z"/>
<path d="M138.8,116.5c0,10.3-8.1,18.1-18.2,18.1c-10.1,0-18.2-7.8-18.2-18.1c0-10.2,8.1-18.1,18.2-18.1
	C130.7,98.4,138.8,106.3,138.8,116.5 M110,116.5c0,6,4.4,11.8,10.6,11.8c6.3,0,10.6-5.8,10.6-11.8c0-6.1-4.3-11.8-10.6-11.8
	C114.4,104.7,110,110.5,110,116.5"/>
</symbol>
<symbol id="svg-value01" viewBox="0 0 480 480">

<path class="st0" d="M463.3,217.7c-9.3,0-16.7,7.5-16.7,16.7c0,67.8-55,122.8-122.8,122.8c-38.6,0-73-17.8-95.5-45.6
	c0.4,0.1,0.8,0.1,1.1,0.2c1.6,0.5,3.3,0.8,5.1,0.8c1.2,0,2.5,0,3.7,0c0.6,0,1.2,0,1.9,0c4,0,7.9-0.3,11.8-1
	c78.2-8.6,138.9-74.9,138.9-155.3C390.7,70,320.7,0,234.4,0c-9.3,0-16.7,7.5-16.7,16.7c0,9.3,7.5,16.7,16.7,16.7
	c67.8,0,122.8,55,122.8,122.8c0,38.6-17.8,73-45.6,95.5c0.6-3.8,1-7.8,1-11.8c0-1.3,0-2.5-0.1-3.8c0.1-0.6,0.1-1.2,0.1-1.8
	c0-86.3-70-156.3-156.3-156.3C70,78.1,0,148.1,0,234.4c0,9.3,7.5,16.7,16.7,16.7s16.7-7.5,16.7-16.7c0-67.8,55-122.8,122.8-122.8
	c44.4,0,83.4,23.6,104.9,59c-6.7-2.1-13.8-3.1-21.2-3.1c-1.3,0-2.5,0-3.8,0.1c-0.6-0.1-1.2-0.1-1.8-0.1
	c-86.3,0-156.3,70-156.3,156.3c0,86.3,70,156.3,156.3,156.3c9.3,0,16.7-7.5,16.7-16.7c0-9.3-7.5-16.7-16.7-16.7
	c-67.8,0-122.8-55-122.8-122.8c0-44.4,23.6-83.4,59-104.9c-1,3.4-1.8,6.9-2.4,10.5c-0.5,1.6-0.8,3.3-0.8,5.1c0,1.2,0,2.5,0,3.7
	c0,0.6,0,1.2,0,1.9c0,4,0.3,7.9,1,11.8c8.6,78.2,74.9,138.9,155.3,138.9c86.3,0,156.3-70,156.3-156.3
	C480,225.2,472.5,217.7,463.3,217.7z M238,279c-18.3-0.9-33.2-14.4-36.4-32c-0.3-3-0.5-6-0.6-9c1.1-20.6,18.1-37,39-37
	s39.1,17.5,39.1,39.1c0,19.2-13.8,35.1-32.1,38.4C244,278.7,241,278.9,238,279L238,279z"/>
</symbol>
<symbol id="svg-value02" viewBox="0 0 432.2 480">

<g>
	<path class="st0" d="M154.7,61.4c0-33.9,27.5-61.4,61.4-61.4c33.9,0,61.4,27.5,61.4,61.4s-27.5,61.4-61.4,61.4
		C182.2,122.8,154.7,95.3,154.7,61.4z M216.1,33.5c-15.4,0-27.9,12.5-27.9,27.9s12.5,27.9,27.9,27.9S244,76.8,244,61.4
		S231.5,33.5,216.1,33.5z"/>
	<path class="st0" d="M154.7,240c0-33.9,27.5-61.4,61.4-61.4c33.9,0,61.4,27.5,61.4,61.4c0,33.9-27.5,61.4-61.4,61.4
		C182.2,301.4,154.7,273.9,154.7,240z M216.1,212.1c-15.4,0-27.9,12.5-27.9,27.9s12.5,27.9,27.9,27.9S244,255.4,244,240
		S231.5,212.1,216.1,212.1z"/>
	<path class="st0" d="M340.1,97.5c29.4-17,66.9-6.9,83.9,22.5c17,29.4,6.9,66.9-22.5,83.9c-29.4,17-66.9,6.9-83.9-22.5
		C300.6,152,310.7,114.5,340.1,97.5z M394.9,136.7c-7.7-13.3-24.8-17.9-38.1-10.2c-13.4,7.7-17.9,24.8-10.2,38.1
		c7.7,13.3,24.8,17.9,38.1,10.2C398.1,167.2,402.6,150.1,394.9,136.7z"/>
	<path class="st0" d="M317.6,298.6c17-29.4,54.5-39.4,83.9-22.5c29.4,17,39.4,54.5,22.5,83.9c-17,29.4-54.5,39.4-83.9,22.5
		C310.7,365.5,300.6,328,317.6,298.6z M384.7,305.1c-13.4-7.7-30.4-3.1-38.1,10.2c-7.7,13.3-3.1,30.4,10.2,38.1
		c13.4,7.7,30.4,3.1,38.1-10.2C402.6,329.9,398.1,312.8,384.7,305.1z"/>
	<path class="st0" d="M154.7,418.6c0-33.9,27.5-61.4,61.4-61.4c33.9,0,61.4,27.5,61.4,61.4c0,33.9-27.5,61.4-61.4,61.4
		C182.2,480,154.7,452.5,154.7,418.6z M216.1,390.7c-15.4,0-27.9,12.5-27.9,27.9c0,15.4,12.5,27.9,27.9,27.9S244,434,244,418.6
		C244,403.2,231.5,390.7,216.1,390.7z"/>
	<path class="st0" d="M30.7,276.1c29.4-17,66.9-6.9,83.9,22.5c17,29.4,6.9,66.9-22.5,83.9c-29.4,17-66.9,6.9-83.9-22.5
		C-8.7,330.6,1.3,293.1,30.7,276.1z M47.4,305.1c-13.3,7.7-17.9,24.8-10.2,38.1c7.7,13.4,24.8,17.9,38.1,10.2
		c13.3-7.7,17.9-24.8,10.2-38.1C77.9,302,60.8,297.4,47.4,305.1z"/>
	<path class="st0" d="M8.2,120c17-29.4,54.5-39.4,83.9-22.5c29.4,17,39.4,54.5,22.5,83.9c-17,29.4-54.5,39.4-83.9,22.5
		C1.3,186.9-8.7,149.4,8.2,120z M75.4,126.5c-13.3-7.7-30.4-3.1-38.1,10.2c-7.7,13.3-3.1,30.4,10.2,38.1
		c13.3,7.7,30.4,3.1,38.1-10.2C93.3,151.3,88.7,134.2,75.4,126.5z"/>
</g>
</symbol>
<symbol id="svg-value03" viewBox="0 0 480 480">

<g>
	<path class="st0" d="M32.1,343.3c3-5.2,8.5-8.4,14.5-8.4h92.9c9.3,0,16.7,7.5,16.7,16.7s-7.5,16.7-16.7,16.7H78.2
		c37.9,47.6,96.3,78.1,161.8,78.1c46.5,0,89.4-15.4,123.9-41.1c7.4-5.5,17.9-4,23.4,3.4c5.5,7.4,4,17.9-3.4,23.4
		c-40.1,30-90,47.8-144,47.8c-88.9,0-166.4-48.3-207.9-120C29.1,354.8,29.1,348.4,32.1,343.3L32.1,343.3z"/>
	<path class="st0" d="M314,28.6c3.7-8.5,13.6-12.3,22.1-8.6c84.7,37,144,121.6,144,220c0,43.7-11.7,84.7-32.1,120
		c-3,5.2-8.5,8.4-14.5,8.4c-6,0-11.5-3.2-14.5-8.4l-45.1-78.1c-4.6-8-1.9-18.3,6.1-22.9c8-4.6,18.3-1.9,22.9,6.1l29.3,50.8
		c9.3-23.5,14.4-49.1,14.4-75.9c0-84.7-50.9-157.5-123.9-189.3C314.1,46.9,310.2,37.1,314,28.6L314,28.6z"/>
	<path class="st0" d="M209.7,35.7C110,50.3,33.5,136.2,33.5,240c0,7,0.3,13.9,1,20.7c0.9,9.2-5.8,17.4-15,18.3
		c-9.2,0.9-17.4-5.8-18.3-15C0.4,256.1,0,248.1,0,240C0,107.5,107.4,0,240,0c6,0,11.5,3.2,14.5,8.4c3,5.2,3,11.6,0,16.7l-45.1,78.1
		c-4.6,8-14.9,10.7-22.9,6.1c-8-4.6-10.7-14.9-6.1-22.9L209.7,35.7L209.7,35.7z"/>
	<path class="st0" d="M156.3,240c0-46.2,37.5-83.7,83.7-83.7c46.2,0,83.7,37.5,83.7,83.7c0,46.2-37.5,83.7-83.7,83.7
		C193.8,323.7,156.3,286.2,156.3,240z M240,189.8c-27.7,0-50.2,22.5-50.2,50.2s22.5,50.2,50.2,50.2c27.7,0,50.2-22.5,50.2-50.2
		S267.7,189.8,240,189.8z"/>
</g>
</symbol>
</svg>